<?xml version="1.0" encoding="UTF-8" standalone="no"?>
<!-- Created with Inkscape (http://www.inkscape.org/) -->

<svg
   width="250.28679mm"
   height="99.929596mm"
   viewBox="0 0 250.28679 99.929596"
   version="1.1"
   id="svg1"
   xml:space="preserve"
   xmlns="http://www.w3.org/2000/svg"
   xmlns:svg="http://www.w3.org/2000/svg"><defs
     id="defs1" /><g
     id="g3"
     transform="matrix(0.21153784,0,0,0.21153784,16.820854,11.754113)"
     style="display:inline"><path
       d="M -79.516998,-55.565062 V 416.83083 H 1103.6604 V -55.565062 Z"
       fill="#ff9900"
       id="path1-9"
       style="stroke-width:1.22434" /><path
       d="m 983.31972,179.9046 c -0.83,-3.18572 -2.07621,-6.78155 -3.04291,-8.57946 0,0 0.5517,-0.55781 1.66121,0.1367 1.10218,0.69451 8.16324,5.53533 8.16324,5.53533 3.60071,5.26315 5.81485,26.85888 5.95033,34.61323 -3.32242,-1.52451 -8.02654,-4.15242 -11.07677,-7.06594 z M 961.9974,159.82605 c -5.82095,-6.36655 -10.66177,-12.32298 -15.37321,-19.37672 3.04901,-5.82094 5.26802,-21.18805 3.88022,-27.13838 -0.5517,-1.80402 -5.54143,-8.44886 -6.37265,-9.41556 -1.24621,-1.24621 -5.25704,-5.814845 -7.19654,-5.814845 -0.415,0 -0.83122,0.142808 -0.9728,0.279513 l 0.5578,5.120332 c -5.39985,3.45913 -12.45969,8.16935 -18.83234,12.87468 0,1.79792 0.13549,4.56253 0.27952,5.54144 0.9667,0.82511 2.0762,1.51962 3.32242,1.94072 2.49242,-0.4211 10.24799,-2.36182 12.3181,-2.08353 l -7.60544,11.49299 -8.72715,6.22984 -10.93518,-3.4579 c -0.69451,-0.14281 -1.38902,0 -1.80402,0.5517 l -8.02776,8.72837 c -0.41622,0.40889 -0.69329,0.82389 -0.69329,1.79181 l -0.27951,9.83788 c 0,0 -0.13549,1.5184 -0.13549,3.17961 0,7.06106 3.17962,10.38226 3.17962,10.38226 l 5.26802,-7.61764 c -0.70061,-1.10341 -1.94682,-4.14754 -2.22512,-5.52923 0,-0.27952 0.14281,-8.44886 0.14281,-8.44886 l 5.12522,-3.74474 13.56919,9.55959 c 0,0 3.73742,6.92313 7.34057,11.07676 2.34962,2.90743 14.11358,10.79848 19.79294,14.1209 0.5578,3.05023 1.80401,8.02776 2.77071,10.65567 l 16.61943,17.03442 -9.83178,12.3181 c -3.45912,2.21901 -6.78887,6.23472 -6.50935,9.97336 h 11.3575 l 1.24621,-6.50936 13.56919,-15.08759 c 0.69329,-0.83 0.69329,-1.2511 0.27952,-2.49731 l -3.88023,-13.01139 c 1.9395,-2.21901 6.08582,-7.74824 6.08582,-14.39919 -0.004,-12.04957 -13.15054,-15.09247 -17.30295,-18.5577 z m -61.20113,-24.78267 c -0.41622,0.14281 -10.52018,2.90743 -10.52018,2.90743 0,0 -4.71022,1.80401 -6.78765,3.18571 -2.07621,1.38902 -4.43315,3.73742 -4.56863,4.98363 l 8.99445,2.07621 c 1.38903,-1.52573 2.91353,-3.17961 4.29645,-4.29645 l 2.07621,-0.96059 7.47605,-7.61887 c 0,0.001 -0.27829,-0.41377 -0.9667,-0.27707 z m 42.50428,77.81445 12.73919,-12.18139 5.26315,5.25704 -13.71078,11.62969 c -1.10341,1.38169 -1.93462,3.60071 -2.62791,4.98363 h -10.10397 c 0.55537,-3.73864 5.81241,-8.44398 8.44032,-9.68897 z m 67.71045,25.74814 H 875.73409 v -4.43192 H 1011.011 Z M 631.90239,175.19316 c 0,-8.29995 -2.63401,-14.81541 -9.82445,-14.81541 -7.20997,0 -10.11739,6.51424 -10.11739,14.81541 v 54.69299 h 8.45618 v 8.72104 h -46.25024 v -8.72104 h 8.57946 v -75.31714 h -8.57946 v -8.44886 h 36.41236 v 14.1209 h 0.415 c 3.45912,-7.74825 11.49298,-15.91271 24.37377,-15.91271 13.56919,0 21.87036,8.29995 24.50437,19.23513 0.97281,4.29644 1.2511,11.35628 1.2511,14.95211 v 51.37057 h 11.07066 v 8.72104 h -40.29136 z m -187.89127,0 c 0,-8.29995 -2.62791,-14.81541 -9.82568,-14.81541 -7.20264,0 -10.11007,6.51424 -10.11007,14.81541 v 54.69299 h 8.44886 v 8.72104 h -46.24901 v -8.72104 h 8.58556 v -75.31714 h -8.58556 v -8.44886 h 36.41724 v 14.1209 h 0.41011 c 3.46523,-7.74825 11.49787,-15.91271 24.37377,-15.91271 13.5692,0 21.87525,8.29995 24.50316,19.23513 0.97402,4.29644 1.25231,11.35628 1.25231,14.95211 v 51.37057 h 11.07677 v 8.72104 h -40.29869 v -63.41403 z m 267.36815,-20.62415 v 68.39156 c 0,4.71144 3.04901,5.82217 5.95033,5.82217 2.77194,0 5.41205,-0.96792 5.41205,-0.96792 v 8.43665 c 0,0 -5.54754,3.46645 -17.86563,3.46645 -14.39919,0 -22.84927,-7.06716 -22.84927,-22.01927 v -63.12842 h -9.83178 v -6.23595 c 10.93518,-8.71616 23.67927,-18.69563 33.78445,-27.13228 h 5.39985 v 24.91937 h 14.127 v 8.44886 h -14.127 z M 134.27417,98.079324 c 0,0 22.29757,22.285356 32.53824,33.777126 v 8.72837 c -9.54616,-10.11007 -29.3513,-18.56015 -47.76864,-18.56015 -41.675501,0 -67.845967,31.43361 -67.845967,70.33839 0,38.76198 24.782666,70.19559 67.845967,70.19559 21.46024,0 38.63137,-10.11007 48.18363,-20.48623 v 8.29995 c -13.01749,17.86442 -36.82735,29.49411 -66.45694,29.49411 -53.037885,0 -89.585726,-38.48857 -89.585726,-87.5022 0,-49.00752 40.572095,-87.36671 89.585726,-87.36671 12.46579,0 23.67926,2.07621 33.50493,5.54144 V 98.079324 Z M 560.1823,213.96612 c -4.15973,4.84204 -10.66177,8.57946 -20.35806,8.57946 -8.44886,0 -21.46024,-4.71022 -22.01073,-26.16559 h 49.42863 c 0.13671,-1.66121 0.27341,-4.98973 0.27341,-6.65216 0,-26.02278 -10.65445,-45.39949 -38.48856,-45.39949 -27.96838,0 -42.23331,21.45414 -42.23331,48.17753 0,26.71607 14.26493,47.76131 42.23331,47.76131 18.00234,0 29.35252,-8.44275 36.00346,-21.73975 z m -42.36757,-26.58669 c 0,-24.36767 1.93951,-33.50493 10.24067,-33.50493 8.45497,0 10.11618,8.85775 10.38348,33.50493 z m -407.62993,4.70534 c 0,-28.24179 2.62791,-40.70148 12.18017,-40.70148 9.55226,0 12.18627,12.45969 12.18627,40.70148 0,28.24911 -2.63401,40.70148 -12.18627,40.70148 -9.55226,0 -12.18017,-12.45237 -12.18017,-40.70148 z m -34.341036,0.27951 c 0,27.9696 17.163802,50.67606 46.522426,50.67606 29.3513,0 46.52242,-22.70646 46.52242,-50.67606 0,-27.9696 -17.17112,-50.66873 -46.52242,-50.66873 -29.358624,-0.001 -46.522426,22.69913 -46.522426,50.66873 z M 234.37886,175.19316 c 0,-8.29995 -2.62791,-14.81541 -9.82567,-14.81541 -7.19655,0 -10.11007,6.51546 -10.11007,14.81541 v 54.69299 h 8.44886 v 8.72104 h -46.24902 v -8.72104 h 8.58556 v -75.31592 h -8.58556 v -8.44886 h 36.41724 v 14.1209 h 0.415 c 3.45912,-7.74825 11.49298,-15.91271 24.36767,-15.91271 13.56919,0 21.88134,8.29995 24.50437,19.23513 0.9667,4.29644 1.24621,11.35628 1.24621,14.95211 v 51.37057 h 11.08409 v 8.72105 h -40.29868 z m 103.43321,-53.58227 c 0,8.16935 7.33935,13.5753 17.86564,13.5753 10.51896,0 17.85831,-5.40595 17.85831,-13.5753 0,-8.15836 -7.33935,-13.56309 -17.85831,-13.56309 -10.52629,0 -17.86564,5.40473 -17.86564,13.56309 z m -23.95267,32.95934 v 68.39034 c 0,4.71144 3.04413,5.82217 5.95643,5.82217 2.76462,0 5.39253,-0.96792 5.39253,-0.96792 v 8.43665 c 0,0 -5.52923,3.46645 -17.85221,3.46645 -14.39919,0 -22.84927,-7.06716 -22.84927,-22.01805 v -63.12964 h -9.83178 v -6.23595 c 10.94129,-8.71616 23.67926,-18.69563 33.77713,-27.13228 h 5.40595 v 24.91937 h 11.35018 v 8.44886 z m 540.14104,75.31592 h 11.35017 v 8.72104 H 824.77974 V 120.36468 h -10.10397 v -8.43665 h 39.32589 v 117.95812 z m -78.09885,-37.10687 c -0.83121,-0.83122 -2.63401,-1.9395 -6.37265,-1.9395 -8.71616,0 -10.65444,8.59166 -10.65444,17.44942 0,8.72226 2.62791,15.78332 10.10274,15.78332 3.60193,0 5.82217,-1.52572 6.92435,-2.77194 z m 1.25232,34.75115 h -0.42232 c -5.39863,7.61154 -12.59517,12.73797 -23.67316,12.73797 -15.09492,0 -24.51048,-12.87468 -24.51048,-28.24179 0,-18.55282 13.15298,-30.32532 34.19945,-30.32532 8.58556,0 13.15297,1.94683 13.15297,1.94683 v -5.82583 c 0,-11.20737 -6.92435,-17.16503 -17.02709,-17.16503 -13.99152,0 -21.18196,10.80458 -21.18196,10.80458 l -5.12644,-6.22984 c 9.27397,-14.40651 23.53035,-20.90244 36.82736,-20.90244 22.44037,0 35.72395,13.28358 35.72395,33.49273 v 52.06386 h 9.41067 v 8.72104 h -37.37295 z m -444.74047,11.07554 v -8.72104 h 8.44886 v -75.31592 h -8.44886 v -8.44886 h 37.66345 v 83.76478 h 8.58557 v 8.72104"
       id="path2-4"
       style="stroke-width:1.22058" /></g><style
     id="style1">.st0{fill:#fd0}.st1{fill:#fff}.st2{fill:#00000d}.st3{fill:#ec1c24}.st4{fill-rule:evenodd;clip-rule:evenodd;fill:#00000d}</style></svg>
